<svg width="100" height="91" viewBox="0 0 100 91" fill="none" xmlns="http://www.w3.org/2000/svg">
<path d="M97.734 8.9999C85.6319 8.9999 68.5346 10.0146 59.7975 18.7642C56.0147 22.5544 54.1256 28.7333 54.616 35.7266C54.6796 36.6503 55.2927 37.4374 56.1736 37.7286C57.0501 38.0153 58.0128 37.7468 58.6122 37.0416C63.4712 31.3131 69.5109 26.7222 76.5769 23.3961C77.1763 23.1095 77.8847 23.0867 78.5296 23.3142C79.0972 23.519 79.5422 23.9057 79.7738 24.4017C80.2552 25.4209 80.1008 26.7631 78.5023 27.5184C78.4115 27.5639 78.3298 27.6231 78.2389 27.664C78.2072 27.6777 78.1708 27.6731 78.1436 27.6868C60.7329 35.8859 52.1729 50.1911 48.2857 64.9012C45.4521 46.4828 39.4669 35.6402 33.8132 28.9835C29.7216 23.6691 25.6982 20.8526 23.3731 19.2601C22.9417 18.9644 21.6384 18.0726 21.098 17.5312C20.2125 16.6439 20.2125 15.2016 21.098 14.3143C21.9836 13.4316 23.4276 13.4316 24.4131 14.4144C24.6537 14.6283 25.0397 14.9013 25.5302 15.2289L25.9343 15.5019C29.2221 17.7587 35.3435 21.9492 40.7747 30.9719C41.2606 31.7772 42.2006 32.2095 43.1134 32.0366C44.0398 31.8728 44.7664 31.1584 44.948 30.2348C46.1332 24.1696 45.6019 15.1697 40.2025 9.75975C31.4654 1.01465 14.3681 0 2.27056 0C1.01721 0 0 1.0192 0 2.275C0 14.4008 1.01267 31.5315 9.74524 40.2857C13.3872 43.9348 19.0046 45.5728 24.5856 45.5728C29.1404 45.5728 33.6043 44.4308 37.0237 42.4515C41.6875 52.1339 45.4112 66.5984 45.4112 88.725C45.4112 89.9808 46.4284 91 47.6818 91C48.9351 91 49.9523 89.9808 49.9523 88.725C49.9523 76.3809 52.0639 61.5661 59.9155 49.3721C63.0625 52.4524 68.4801 54.4044 74.4834 54.5864C74.7832 54.5955 75.0783 54.6 75.3735 54.6C81.4722 54.6 86.8625 52.6845 90.2547 49.2811C98.9919 40.5269 100 23.3961 100 11.2704C100.005 10.0146 98.9919 8.9999 97.734 8.9999Z" fill="#5eb482"/>
</svg>
